#tb 0: 1/25
0,          0,          0,        1,   152064, 0xd47739a4
0,          1,          1,        1,   152064, 0x62cbe0a5
0,          2,          2,        1,   152064, 0xa3bcdafc
0,          3,          3,        1,   152064, 0x0557803c
0,          4,          4,        1,   152064, 0x1c76042c
0,          5,          5,        1,   152064, 0x7a62149a
0,          6,          6,        1,   152064, 0xe472732b
0,          7,          7,        1,   152064, 0x84d1df67
0,          8,          8,        1,   152064, 0x81d54376
0,          9,          9,        1,   152064, 0xc3eaad3e
0,         10,         10,        1,   152064, 0xb072e547
0,         11,         11,        1,   152064, 0x39aecfbf
0,         12,         12,        1,   152064, 0x7cde1262
0,         13,         13,        1,   152064, 0xd08f2a60
0,         14,         14,        1,   152064, 0x8a1b6175
0,         15,         15,        1,   152064, 0x1673f109
0,         16,         16,        1,   152064, 0x77f7f64f
0,         17,         17,        1,   152064, 0xd65947a2
0,         18,         18,        1,   152064, 0xf986e3bf
0,         19,         19,        1,   152064, 0xd58eac5b
0,         20,         20,        1,   152064, 0x6325077e
0,         21,         21,        1,   152064, 0x9c105e72
0,         22,         22,        1,   152064, 0xa7a37577
0,         23,         23,        1,   152064, 0x50a1b82e
0,         24,         24,        1,   152064, 0x5a2f3b80
0,         25,         25,        1,   152064, 0xd526b692
0,         26,         26,        1,   152064, 0x6fa1670a
0,         27,         27,        1,   152064, 0xd4cb52c8
0,         28,         28,        1,   152064, 0xe0f69409
0,         29,         29,        1,   152064, 0x7951c0bb
0,         30,         30,        1,   152064, 0xc3d63f7e
0,         31,         31,        1,   152064, 0xfc32dfa3
0,         32,         32,        1,   152064, 0x512af72c
0,         33,         33,        1,   152064, 0x5a4d3dae
0,         34,         34,        1,   152064, 0xadda154b
0,         35,         35,        1,   152064, 0x01714d59
0,         36,         36,        1,   152064, 0x0c97112c
0,         37,         37,        1,   152064, 0x3d9b3c68
0,         38,         38,        1,   152064, 0x1b886df4
0,         39,         39,        1,   152064, 0xc0304136
0,         40,         40,        1,   152064, 0x301a7a7a
0,         41,         41,        1,   152064, 0x33fcc73c
0,         42,         42,        1,   152064, 0x4301a66e
0,         43,         43,        1,   152064, 0xa82deff7
0,         44,         44,        1,   152064, 0x3c3962e2
0,         45,         45,        1,   152064, 0x9a61a972
0,         46,         46,        1,   152064, 0xb558aeea
0,         47,         47,        1,   152064, 0xd789d7b2
0,         48,         48,        1,   152064, 0xb77e07a1
0,         49,         49,        1,   152064, 0x8490e141
